ply
format ascii 1.0
comment Created by Blender 2.82 (sub 7) - www.blender.org, source file: ''
element vertex 192
property float x
property float y
property float z
property float nx
property float ny
property float nz
property float s
property float t
element face 34
property list uchar uint vertex_indices
end_header
-0.000000 1.198584 2.766019 1.000000 0.000000 0.000000 0.000000 0.000000
-0.000000 1.129041 3.045251 1.000000 0.000000 0.000000 0.000000 0.000000
-0.000000 1.016110 3.302592 1.000000 0.000000 0.000000 0.000000 0.000000
-0.000000 0.864131 3.528153 1.000000 0.000000 0.000000 0.000000 0.000000
-0.000000 0.678943 3.713267 1.000000 0.000000 0.000000 0.000000 0.000000
-0.000000 0.467664 3.850819 1.000000 0.000000 0.000000 0.000000 0.000000
-0.000000 0.238413 3.935523 1.000000 0.000000 0.000000 0.000000 0.000000
-0.000000 0.000000 3.964124 1.000000 0.000000 0.000000 0.000000 0.000000
-0.000000 -0.238413 3.935523 1.000000 0.000000 0.000000 0.000000 0.000000
-0.000000 -0.467664 3.850819 1.000000 0.000000 0.000000 0.000000 0.000000
-0.000000 -0.678943 3.713267 1.000000 0.000000 0.000000 0.000000 0.000000
-0.000000 -0.864131 3.528153 1.000000 0.000000 0.000000 0.000000 0.000000
-0.000000 -1.016110 3.302592 1.000000 0.000000 0.000000 0.000000 0.000000
0.000000 -1.129041 3.045250 1.000000 0.000000 0.000000 0.000000 0.000000
0.000000 -1.198584 2.766019 1.000000 0.000000 0.000000 0.000000 0.000000
0.000000 -1.222065 2.475627 1.000000 0.000000 0.000000 0.000000 0.000000
0.000000 -1.198584 2.185236 1.000000 0.000000 0.000000 0.000000 0.000000
0.000000 -1.129041 1.906004 1.000000 0.000000 0.000000 0.000000 0.000000
0.000000 -1.016110 1.648663 1.000000 0.000000 0.000000 0.000000 0.000000
0.000000 -0.864130 1.423101 1.000000 0.000000 0.000000 0.000000 0.000000
0.000000 -0.678942 1.237988 1.000000 0.000000 0.000000 0.000000 0.000000
0.000000 -0.321132 1.000636 1.000000 0.000000 0.000000 0.000000 0.000000
0.000000 -0.302773 -1.029015 1.000000 0.000000 0.000000 0.000000 0.000000
0.000000 0.000001 -1.030142 1.000000 0.000000 0.000000 0.000000 0.000000
0.000000 0.281846 -1.029015 1.000000 0.000000 0.000000 0.000000 0.000000
0.000000 0.280803 1.000637 1.000000 0.000000 0.000000 0.000000 0.000000
0.000000 0.678944 1.237989 1.000000 0.000000 0.000000 0.000000 0.000000
0.000000 0.864132 1.423103 1.000000 0.000000 0.000000 0.000000 0.000000
0.000000 1.016111 1.648665 1.000000 0.000000 0.000000 0.000000 0.000000
-0.000000 1.129042 1.906007 1.000000 0.000000 0.000000 0.000000 0.000000
-0.000000 1.198584 2.185239 1.000000 0.000000 0.000000 0.000000 0.000000
-0.000000 1.222065 2.475628 1.000000 0.000000 0.000000 0.000000 0.000000
-0.267930 1.198584 2.766019 -1.000000 -0.000001 0.000001 0.000000 0.000000
-0.267930 1.222065 2.475628 -1.000000 -0.000001 0.000001 0.000000 0.000000
-0.267929 1.198584 2.185239 -1.000000 -0.000001 0.000001 0.000000 0.000000
-0.267929 1.129042 1.906007 -1.000000 -0.000001 0.000001 0.000000 0.000000
-0.267929 1.016111 1.648665 -1.000000 -0.000001 0.000001 0.000000 0.000000
-0.267929 0.864132 1.423103 -1.000000 -0.000001 0.000001 0.000000 0.000000
-0.267929 0.678944 1.237989 -1.000000 -0.000001 0.000001 0.000000 0.000000
-0.267929 0.280803 1.000637 -1.000000 -0.000001 0.000001 0.000000 0.000000
-0.267929 0.281846 -1.029015 -1.000000 -0.000001 0.000001 0.000000 0.000000
-0.267929 0.000001 -1.030142 -1.000000 -0.000001 0.000001 0.000000 0.000000
-0.267929 -0.302773 -1.029015 -1.000000 -0.000001 0.000001 0.000000 0.000000
-0.267929 -0.321132 1.000636 -1.000000 -0.000001 0.000001 0.000000 0.000000
-0.267929 -0.678942 1.237988 -1.000000 -0.000001 0.000001 0.000000 0.000000
-0.267929 -0.864130 1.423101 -1.000000 -0.000001 0.000001 0.000000 0.000000
-0.267921 -1.016110 1.648663 -1.000000 -0.000001 0.000001 0.000000 0.000000
-0.267929 -1.129041 1.906004 -1.000000 -0.000001 0.000001 0.000000 0.000000
-0.267921 -1.198584 2.185236 -1.000000 -0.000001 0.000001 0.000000 0.000000
-0.267921 -1.222065 2.475627 -1.000000 -0.000001 0.000001 0.000000 0.000000
-0.267929 -1.198584 2.766018 -1.000000 -0.000001 0.000001 0.000000 0.000000
-0.267929 -1.129041 3.045250 -1.000000 -0.000001 0.000001 0.000000 0.000000
-0.267921 -1.016110 3.302592 -1.000000 -0.000001 0.000001 0.000000 0.000000
-0.267929 -0.864131 3.528153 -1.000000 -0.000001 0.000001 0.000000 0.000000
-0.267921 -0.678943 3.713267 -1.000000 -0.000001 0.000001 0.000000 0.000000
-0.267930 -0.467664 3.850819 -1.000000 -0.000001 0.000001 0.000000 0.000000
-0.267921 -0.238413 3.935523 -1.000000 -0.000001 0.000001 0.000000 0.000000
-0.267921 0.000000 3.964124 -1.000000 -0.000001 0.000001 0.000000 0.000000
-0.267930 0.238413 3.935523 -1.000000 -0.000001 0.000001 0.000000 0.000000
-0.267930 0.467664 3.850819 -1.000000 -0.000001 0.000001 0.000000 0.000000
-0.267922 0.678943 3.713267 -1.000000 -0.000001 0.000001 0.000000 0.000000
-0.267930 0.864131 3.528153 -1.000000 -0.000001 0.000001 0.000000 0.000000
-0.267921 1.016110 3.302592 -1.000000 -0.000001 0.000001 0.000000 0.000000
-0.267930 1.129041 3.045250 -1.000000 -0.000001 0.000001 0.000000 0.000000
-0.000000 1.198584 2.766019 0.000000 0.996747 0.080599 0.000000 0.000000
-0.000000 1.222065 2.475628 0.000000 0.996747 0.080599 0.000000 0.000000
-0.267930 1.222065 2.475628 0.000000 0.996747 0.080599 0.000000 0.000000
-0.267930 1.198584 2.766019 0.000000 0.996747 0.080599 0.000000 0.000000
-0.000000 1.129041 3.045251 -0.000000 0.970359 0.241667 0.000000 0.000000
-0.000000 1.198584 2.766019 -0.000000 0.970359 0.241667 0.000000 0.000000
-0.267930 1.198584 2.766019 -0.000000 0.970359 0.241667 0.000000 0.000000
-0.267930 1.129041 3.045250 -0.000000 0.970359 0.241667 0.000000 0.000000
-0.000000 1.016110 3.302592 -0.000000 0.915707 0.401846 0.000000 0.000000
-0.000000 1.129041 3.045251 -0.000000 0.915707 0.401846 0.000000 0.000000
-0.267930 1.129041 3.045250 -0.000000 0.915707 0.401846 0.000000 0.000000
-0.267921 1.016110 3.302592 -0.000000 0.915707 0.401846 0.000000 0.000000
-0.000000 0.864131 3.528153 -0.000000 0.829316 0.558779 0.000000 0.000000
-0.000000 1.016110 3.302592 -0.000000 0.829316 0.558779 0.000000 0.000000
-0.267921 1.016110 3.302592 -0.000000 0.829316 0.558779 0.000000 0.000000
-0.267930 0.864131 3.528153 -0.000000 0.829316 0.558779 0.000000 0.000000
-0.000000 0.678943 3.713267 -0.000000 0.706966 0.707248 0.000000 0.000000
-0.000000 0.864131 3.528153 -0.000000 0.706966 0.707248 0.000000 0.000000
-0.267930 0.864131 3.528153 -0.000000 0.706966 0.707248 0.000000 0.000000
-0.267922 0.678943 3.713267 -0.000000 0.706966 0.707248 0.000000 0.000000
-0.000000 0.467664 3.850819 -0.000000 0.545602 0.838044 0.000000 0.000000
-0.000000 0.678943 3.713267 -0.000000 0.545602 0.838044 0.000000 0.000000
-0.267922 0.678943 3.713267 -0.000000 0.545602 0.838044 0.000000 0.000000
-0.267930 0.467664 3.850819 -0.000000 0.545602 0.838044 0.000000 0.000000
-0.000000 0.238413 3.935523 -0.000000 0.346582 0.938020 0.000000 0.000000
-0.000000 0.467664 3.850819 -0.000000 0.346582 0.938020 0.000000 0.000000
-0.267930 0.467664 3.850819 -0.000000 0.346582 0.938020 0.000000 0.000000
-0.267930 0.238413 3.935523 -0.000000 0.346582 0.938020 0.000000 0.000000
-0.000000 0.000000 3.964124 -0.000000 0.119110 0.992881 0.000000 0.000000
-0.000000 0.238413 3.935523 -0.000000 0.119110 0.992881 0.000000 0.000000
-0.267930 0.238413 3.935523 -0.000000 0.119110 0.992881 0.000000 0.000000
-0.267921 0.000000 3.964124 -0.000000 0.119110 0.992881 0.000000 0.000000
-0.000000 -0.238413 3.935523 0.000000 -0.119110 0.992881 0.000000 0.000000
-0.000000 0.000000 3.964124 0.000000 -0.119110 0.992881 0.000000 0.000000
-0.267921 0.000000 3.964124 0.000000 -0.119110 0.992881 0.000000 0.000000
-0.267921 -0.238413 3.935523 0.000000 -0.119110 0.992881 0.000000 0.000000
-0.000000 -0.467664 3.850819 0.000000 -0.346581 0.938020 0.000000 0.000000
-0.000000 -0.238413 3.935523 0.000000 -0.346581 0.938020 0.000000 0.000000
-0.267921 -0.238413 3.935523 0.000000 -0.346581 0.938020 0.000000 0.000000
-0.267930 -0.467664 3.850819 0.000000 -0.346581 0.938020 0.000000 0.000000
-0.000000 -0.678943 3.713267 0.000000 -0.545603 0.838044 0.000000 0.000000
-0.000000 -0.467664 3.850819 0.000000 -0.545603 0.838044 0.000000 0.000000
-0.267930 -0.467664 3.850819 0.000000 -0.545603 0.838044 0.000000 0.000000
-0.267921 -0.678943 3.713267 0.000000 -0.545603 0.838044 0.000000 0.000000
-0.000000 -0.864131 3.528153 0.000000 -0.706966 0.707248 0.000000 0.000000
-0.000000 -0.678943 3.713267 0.000000 -0.706966 0.707248 0.000000 0.000000
-0.267921 -0.678943 3.713267 0.000000 -0.706966 0.707248 0.000000 0.000000
-0.267929 -0.864131 3.528153 0.000000 -0.706966 0.707248 0.000000 0.000000
-0.000000 -1.016110 3.302592 0.000000 -0.829317 0.558779 0.000000 0.000000
-0.000000 -0.864131 3.528153 0.000000 -0.829317 0.558779 0.000000 0.000000
-0.267929 -0.864131 3.528153 0.000000 -0.829317 0.558779 0.000000 0.000000
-0.267921 -1.016110 3.302592 0.000000 -0.829317 0.558779 0.000000 0.000000
0.000000 -1.129041 3.045250 -0.000000 -0.915707 0.401847 0.000000 0.000000
-0.000000 -1.016110 3.302592 -0.000000 -0.915707 0.401847 0.000000 0.000000
-0.267921 -1.016110 3.302592 -0.000000 -0.915707 0.401847 0.000000 0.000000
-0.267929 -1.129041 3.045250 -0.000000 -0.915707 0.401847 0.000000 0.000000
0.000000 -1.198584 2.766019 -0.000000 -0.970359 0.241667 0.000000 0.000000
0.000000 -1.129041 3.045250 -0.000000 -0.970359 0.241667 0.000000 0.000000
-0.267929 -1.129041 3.045250 -0.000000 -0.970359 0.241667 0.000000 0.000000
-0.267929 -1.198584 2.766018 -0.000000 -0.970359 0.241667 0.000000 0.000000
0.000000 -1.222065 2.475627 -0.000000 -0.996747 0.080599 0.000000 0.000000
0.000000 -1.198584 2.766019 -0.000000 -0.996747 0.080599 0.000000 0.000000
-0.267929 -1.198584 2.766018 -0.000000 -0.996747 0.080599 0.000000 0.000000
-0.267921 -1.222065 2.475627 -0.000000 -0.996747 0.080599 0.000000 0.000000
0.000000 -1.198584 2.185236 0.000000 -0.996747 -0.080599 0.000000 0.000000
0.000000 -1.222065 2.475627 0.000000 -0.996747 -0.080599 0.000000 0.000000
-0.267921 -1.222065 2.475627 0.000000 -0.996747 -0.080599 0.000000 0.000000
-0.267921 -1.198584 2.185236 0.000000 -0.996747 -0.080599 0.000000 0.000000
0.000000 -1.129041 1.906004 0.000000 -0.970359 -0.241668 0.000000 0.000000
0.000000 -1.198584 2.185236 0.000000 -0.970359 -0.241668 0.000000 0.000000
-0.267921 -1.198584 2.185236 0.000000 -0.970359 -0.241668 0.000000 0.000000
-0.267929 -1.129041 1.906004 0.000000 -0.970359 -0.241668 0.000000 0.000000
0.000000 -1.016110 1.648663 0.000000 -0.915707 -0.401846 0.000000 0.000000
0.000000 -1.129041 1.906004 0.000000 -0.915707 -0.401846 0.000000 0.000000
-0.267929 -1.129041 1.906004 0.000000 -0.915707 -0.401846 0.000000 0.000000
-0.267921 -1.016110 1.648663 0.000000 -0.915707 -0.401846 0.000000 0.000000
0.000000 -0.864130 1.423101 0.000000 -0.829316 -0.558780 0.000000 0.000000
0.000000 -1.016110 1.648663 0.000000 -0.829316 -0.558780 0.000000 0.000000
-0.267921 -1.016110 1.648663 0.000000 -0.829316 -0.558780 0.000000 0.000000
-0.267929 -0.864130 1.423101 0.000000 -0.829316 -0.558780 0.000000 0.000000
0.000000 -0.678942 1.237988 0.000000 -0.706965 -0.707248 0.000000 0.000000
0.000000 -0.864130 1.423101 0.000000 -0.706965 -0.707248 0.000000 0.000000
-0.267929 -0.864130 1.423101 0.000000 -0.706965 -0.707248 0.000000 0.000000
-0.267929 -0.678942 1.237988 0.000000 -0.706965 -0.707248 0.000000 0.000000
0.000000 -0.321132 1.000636 0.000000 -0.552783 -0.833326 0.000000 0.000000
0.000000 -0.678942 1.237988 0.000000 -0.552783 -0.833326 0.000000 0.000000
-0.267929 -0.678942 1.237988 0.000000 -0.552783 -0.833326 0.000000 0.000000
-0.267929 -0.321132 1.000636 0.000000 -0.552783 -0.833326 0.000000 0.000000
0.000000 -0.302773 -1.029015 0.000000 -0.999959 -0.009045 0.000000 0.000000
0.000000 -0.321132 1.000636 0.000000 -0.999959 -0.009045 0.000000 0.000000
-0.267929 -0.321132 1.000636 0.000000 -0.999959 -0.009045 0.000000 0.000000
-0.267929 -0.302773 -1.029015 0.000000 -0.999959 -0.009045 0.000000 0.000000
0.000000 0.000001 -1.030142 0.000000 -0.003721 -0.999993 0.000000 0.000000
0.000000 -0.302773 -1.029015 0.000000 -0.003721 -0.999993 0.000000 0.000000
-0.267929 -0.302773 -1.029015 0.000000 -0.003721 -0.999993 0.000000 0.000000
-0.267929 0.000001 -1.030142 0.000000 -0.003721 -0.999993 0.000000 0.000000
0.000000 0.281846 -1.029015 -0.000000 0.003999 -0.999992 0.000000 0.000000
0.000000 0.000001 -1.030142 -0.000000 0.003999 -0.999992 0.000000 0.000000
-0.267929 0.000001 -1.030142 -0.000000 0.003999 -0.999992 0.000000 0.000000
-0.267929 0.281846 -1.029015 -0.000000 0.003999 -0.999992 0.000000 0.000000
0.000000 0.280803 1.000637 -0.000000 1.000000 0.000514 0.000000 0.000000
0.000000 0.281846 -1.029015 -0.000000 1.000000 0.000514 0.000000 0.000000
-0.267929 0.281846 -1.029015 -0.000000 1.000000 0.000514 0.000000 0.000000
-0.267929 0.280803 1.000637 -0.000000 1.000000 0.000514 0.000000 0.000000
0.000000 0.678944 1.237989 -0.000000 0.512063 -0.858948 0.000000 0.000000
0.000000 0.280803 1.000637 -0.000000 0.512063 -0.858948 0.000000 0.000000
-0.267929 0.280803 1.000637 -0.000000 0.512063 -0.858948 0.000000 0.000000
-0.267929 0.678944 1.237989 -0.000000 0.512063 -0.858948 0.000000 0.000000
0.000000 0.864132 1.423103 -0.000000 0.706967 -0.707247 0.000000 0.000000
0.000000 0.678944 1.237989 -0.000000 0.706967 -0.707247 0.000000 0.000000
-0.267929 0.678944 1.237989 -0.000000 0.706967 -0.707247 0.000000 0.000000
-0.267929 0.864132 1.423103 -0.000000 0.706967 -0.707247 0.000000 0.000000
0.000000 1.016111 1.648665 0.000000 0.829317 -0.558779 0.000000 0.000000
0.000000 0.864132 1.423103 0.000000 0.829317 -0.558779 0.000000 0.000000
-0.267929 0.864132 1.423103 0.000000 0.829317 -0.558779 0.000000 0.000000
-0.267929 1.016111 1.648665 0.000000 0.829317 -0.558779 0.000000 0.000000
-0.000000 1.129042 1.906007 0.000000 0.915708 -0.401845 0.000000 0.000000
0.000000 1.016111 1.648665 0.000000 0.915708 -0.401845 0.000000 0.000000
-0.267929 1.016111 1.648665 0.000000 0.915708 -0.401845 0.000000 0.000000
-0.267929 1.129042 1.906007 0.000000 0.915708 -0.401845 0.000000 0.000000
-0.000000 1.198584 2.185239 0.000000 0.970359 -0.241666 0.000000 0.000000
-0.000000 1.129042 1.906007 0.000000 0.970359 -0.241666 0.000000 0.000000
-0.267929 1.129042 1.906007 0.000000 0.970359 -0.241666 0.000000 0.000000
-0.267929 1.198584 2.185239 0.000000 0.970359 -0.241666 0.000000 0.000000
-0.000000 1.222065 2.475628 0.000000 0.996747 -0.080599 0.000000 0.000000
-0.000000 1.198584 2.185239 0.000000 0.996747 -0.080599 0.000000 0.000000
-0.267929 1.198584 2.185239 0.000000 0.996747 -0.080599 0.000000 0.000000
-0.267930 1.222065 2.475628 0.000000 0.996747 -0.080599 0.000000 0.000000
32 0 1 2 3 4 5 6 7 8 9 10 11 12 13 14 15 16 17 18 19 20 21 22 23 24 25 26 27 28 29 30 31
32 32 33 34 35 36 37 38 39 40 41 42 43 44 45 46 47 48 49 50 51 52 53 54 55 56 57 58 59 60 61 62 63
4 64 65 66 67
4 68 69 70 71
4 72 73 74 75
4 76 77 78 79
4 80 81 82 83
4 84 85 86 87
4 88 89 90 91
4 92 93 94 95
4 96 97 98 99
4 100 101 102 103
4 104 105 106 107
4 108 109 110 111
4 112 113 114 115
4 116 117 118 119
4 120 121 122 123
4 124 125 126 127
4 128 129 130 131
4 132 133 134 135
4 136 137 138 139
4 140 141 142 143
4 144 145 146 147
4 148 149 150 151
4 152 153 154 155
4 156 157 158 159
4 160 161 162 163
4 164 165 166 167
4 168 169 170 171
4 172 173 174 175
4 176 177 178 179
4 180 181 182 183
4 184 185 186 187
4 188 189 190 191
